<svg xmlns="http://www.w3.org/2000/svg" version="1.1" xmlns:xlink="http://www.w3.org/1999/xlink" xmlns:svgjs="http://svgjs.dev/svgjs" width="1500" height="1500" viewBox="0 0 1500 1500"><rect width="1500" height="1500" fill="#ffffff"></rect><g transform="matrix(0.6666666666666666,0,0,0.6666666666666666,249.39393939393943,506.021672165466)"><svg viewBox="0 0 396 193" data-background-color="#ffffff" preserveAspectRatio="xMidYMid meet" height="731" width="1500" xmlns="http://www.w3.org/2000/svg" xmlns:xlink="http://www.w3.org/1999/xlink"><g id="tight-bounds" transform="matrix(1,0,0,1,0.2400000000000091,0.12342805485305064)"><svg viewBox="0 0 395.52 192.7531438902939" height="192.7531438902939" width="395.52"><g><svg viewBox="0 0 395.52 192.7531438902939" height="192.7531438902939" width="395.52"><g transform="matrix(1,0,0,1,0,116.62048859063383)"><svg viewBox="0 0 395.52 76.13265529966007" height="76.13265529966007" width="395.52"><g id="textblocktransform"><svg viewBox="0 0 395.52 76.13265529966007" height="76.13265529966007" width="395.52" id="textblock"><g><svg viewBox="0 0 395.52 48.31138686907437" height="48.31138686907437" width="395.52"><g transform="matrix(1,0,0,1,0,0)"><svg width="395.52" viewBox="2.15 -34 391.2933333333333 47.800000000000004" height="48.31138686907437" data-palette-color="#0c076b"><path d="M12.2 0.65L12.2 0.65Q7.45 0.65 5.18-0.88 2.9-2.4 2.9-6.6L2.9-6.6Q2.9-7.45 3.03-8.65 3.15-9.85 3.4-11.55L3.4-11.55Q3.8-14 4-15.93 4.2-17.85 4.2-20.15L4.2-20.15Q4.2-21.65 4.13-23.05 4.05-24.45 3.85-25.7L3.85-25.7Q3.1-25.55 2.85-25.55L2.85-25.55Q2.45-25.55 2.3-25.73 2.15-25.9 2.15-26.4L2.15-26.4Q2.15-27.45 2.4-28.48 2.65-29.5 3.1-30.15L3.1-30.15Q3.95-31.35 5.7-31.55L5.7-31.55Q7.05-31.7 9.03-31.85 11-32 13.08-32.08 15.15-32.15 16.8-32.15L16.8-32.15Q21.4-32.15 22.25-31.95L22.25-31.95Q23.55-31.75 23.55-30.55L23.55-30.55Q23.55-29.05 22.5-27.8L22.5-27.8Q21.95-27.05 21.4-26.73 20.85-26.4 19.85-26.45L19.85-26.45Q17.65-26.6 16-26.65 14.35-26.7 13.7-26.7L13.7-26.7Q12.55-26.7 11.33-26.65 10.1-26.6 8.85-26.5L8.85-26.5Q8.85-24.75 8.7-22.75 8.55-20.75 8.3-18.55L8.3-18.55Q10.6-18.7 13.5-18.78 16.4-18.85 18.65-18.85L18.65-18.85Q19.65-18.85 20.03-18.65 20.4-18.45 20.4-17.6L20.4-17.6Q20.4-16.8 19.98-15.83 19.55-14.85 18.85-14.15L18.85-14.15Q18.55-13.85 18.2-13.68 17.85-13.5 17.25-13.55L17.25-13.55Q15.1-13.65 12.38-13.7 9.65-13.75 7.6-13.7L7.6-13.7Q7.4-12.55 7.3-11.6 7.2-10.65 7.2-9.9L7.2-9.9Q7.2-7.15 8.6-6.05 10-4.95 13.2-4.95L13.2-4.95Q15.15-4.95 16.98-5.3 18.8-5.65 20.7-6.6L20.7-6.6Q21.4-7 21.75-7L21.75-7Q22.3-7 22.83-6.23 23.35-5.45 23.35-4.55L23.35-4.55Q23.35-3.45 22.53-2.48 21.7-1.5 20.35-0.8L20.35-0.8Q18.8-0.1 16.65 0.28 14.5 0.65 12.2 0.65ZM29.45 0.55L29.45 0.55Q27.65 0.55 27.85-0.65L27.85-0.65Q28.4-2.8 28.77-5.03 29.15-7.25 29.15-9.3L29.15-9.3Q29.15-11.95 28.82-13.18 28.5-14.4 27.95-14.88 27.4-15.35 26.6-15.6L26.6-15.6Q26.25-15.75 25.97-16 25.7-16.25 25.7-16.7L25.7-16.7Q25.7-17.4 26.25-18.25 26.8-19.1 27.82-19.73 28.85-20.35 30.15-20.35L30.15-20.35Q31.85-20.35 32.5-19.18 33.15-18 33.15-16.1L33.15-16.1Q33.15-14.85 32.9-13.3 32.65-11.75 32.4-10.5L32.4-10.5 32.55-10.45Q33.55-13.1 34.97-15.38 36.4-17.65 38.3-19.05 40.2-20.45 42.7-20.45L42.7-20.45Q45.35-20.45 46.75-18.85 48.15-17.25 48.15-14.85L48.15-14.85Q48.15-13.85 47.92-12.95 47.7-12.05 47.45-11.2L47.45-11.2Q47.2-10.4 47.02-9.55 46.85-8.7 46.85-7.85L46.85-7.85Q46.85-5 49.55-4L49.55-4Q50.25-3.7 50.25-3.1L50.25-3.1Q50.25-2.65 49.95-1.8 49.65-0.95 48.85-0.23 48.05 0.5 46.5 0.5L46.5 0.5Q44.5 0.5 43.4-0.93 42.3-2.35 42.3-4.55L42.3-4.55Q42.3-5.8 42.57-7.08 42.85-8.35 43.15-9.45L43.15-9.45Q43.35-10.3 43.52-11.13 43.7-11.95 43.7-12.6L43.7-12.6Q43.7-14.9 41.3-14.9L41.3-14.9Q39.25-14.9 37.7-13.38 36.15-11.85 35.05-9.55 33.95-7.25 33.25-4.9L33.25-4.9 33.25-3.7Q33.25-1.85 32.22-0.65 31.2 0.55 29.45 0.55ZM59.95 13.8L59.95 13.8Q56.2 13.8 54 12.25 51.8 10.7 51.8 8.25L51.8 8.25Q51.8 6.45 52.92 5.05 54.05 3.65 55.9 3.65L55.9 3.65Q56.95 3.65 56.95 4.25L56.95 4.25Q56.95 4.6 56.82 5.05 56.7 5.5 56.7 5.95L56.7 5.95Q56.7 7.35 58.3 8.03 59.9 8.7 62.15 8.7L62.15 8.7Q63.55 8.7 65 8.4 66.45 8.1 67.42 7.48 68.4 6.85 68.4 5.8L68.4 5.8Q68.4 4.65 67.25 4.1 66.09 3.55 64.34 3.28 62.59 3 60.77 2.78 58.95 2.55 57.65 2.05L57.65 2.05Q56 1.5 55.2 0.7 54.4-0.1 54.4-1.35L54.4-1.35Q54.4-3.7 57.25-5.1L57.25-5.1Q55.59-5.95 54.77-7.5 53.95-9.05 53.95-10.95L53.95-10.95Q53.95-13.4 55.22-15.55 56.5-17.7 59.02-19.07 61.55-20.45 65.34-20.45L65.34-20.45Q67.05-20.45 68.8-20.13 70.55-19.8 71.72-18.93 72.9-18.05 72.9-16.4L72.9-16.4Q72.9-15.8 72.65-15.08 72.4-14.35 71.7-14.35L71.7-14.35Q71.4-14.35 70.9-14.48 70.4-14.6 70-14.7L70-14.7Q70.09-14.2 70.17-13.6 70.25-13 70.25-12.35L70.25-12.35Q70.25-9.4 68.25-7.03 66.25-4.65 62.4-4.2L62.4-4.2Q61-4.1 60.32-3.88 59.65-3.65 59.65-3.1L59.65-3.1Q59.65-2.6 60.25-2.38 60.84-2.15 61.8-2.05L61.8-2.05Q64.84-1.8 67.2-1.2 69.55-0.6 70.87 0.73 72.2 2.05 72.2 4.5L72.2 4.5Q72.2 7.35 70.52 9.43 68.84 11.5 66.05 12.65 63.25 13.8 59.95 13.8ZM61.84-8.55L61.84-8.55Q64.15-8.55 65.45-9.8 66.75-11.05 66.75-13.05L66.75-13.05Q66.75-13.6 66.65-14.18 66.55-14.75 66.45-15.15L66.45-15.15Q65.65-15.4 64.9-15.48 64.15-15.55 63.45-15.55L63.45-15.55Q60.8-15.55 59.3-14.55 57.8-13.55 57.8-11.8L57.8-11.8Q57.8-10.25 58.9-9.4 60-8.55 61.84-8.55ZM79.89-24.85L79.89-24.85Q78.49-24.9 77.64-25.7 76.79-26.5 76.79-27.95L76.79-27.95Q76.84-29.5 77.84-30.48 78.84-31.45 80.39-31.4L80.39-31.4Q81.84-31.35 82.67-30.55 83.49-29.75 83.44-28.3L83.44-28.3Q83.39-26.8 82.44-25.83 81.49-24.85 79.89-24.85ZM79.94 0.5L79.94 0.5Q78.44 0.5 77.59-0.33 76.74-1.15 76.74-3.15L76.74-3.15Q76.74-4.3 76.97-5.4 77.19-6.5 77.49-7.55L77.49-7.55Q77.84-8.65 78.07-9.8 78.29-10.95 78.29-12.25L78.29-12.25Q78.29-13.15 78.04-13.98 77.79-14.8 76.94-15.2L76.94-15.2Q76.29-15.55 75.82-15.93 75.34-16.3 75.34-16.9L75.34-16.9Q75.34-17.6 75.99-18.4 76.64-19.2 77.72-19.78 78.79-20.35 79.94-20.35L79.94-20.35Q81.19-20.35 81.77-19.7 82.34-19.05 82.54-18.05 82.74-17.05 82.74-16L82.74-16Q82.74-14.4 82.49-12.88 82.24-11.35 81.99-10.05L81.99-10.05Q81.79-9.1 81.69-8.3 81.59-7.5 81.59-6.8L81.59-6.8Q81.59-5.55 82.19-4.93 82.79-4.3 83.89-3.75L83.89-3.75Q84.34-3.5 84.34-3L84.34-3Q84.34-2.6 83.94-1.75 83.54-0.9 82.57-0.2 81.59 0.5 79.94 0.5ZM90.89 0.55L90.89 0.55Q89.09 0.55 89.29-0.65L89.29-0.65Q89.84-2.8 90.22-5.03 90.59-7.25 90.59-9.3L90.59-9.3Q90.59-11.95 90.27-13.18 89.94-14.4 89.39-14.88 88.84-15.35 88.04-15.6L88.04-15.6Q87.69-15.75 87.42-16 87.14-16.25 87.14-16.7L87.14-16.7Q87.14-17.4 87.69-18.25 88.24-19.1 89.27-19.73 90.29-20.35 91.59-20.35L91.59-20.35Q93.29-20.35 93.94-19.18 94.59-18 94.59-16.1L94.59-16.1Q94.59-14.85 94.34-13.3 94.09-11.75 93.84-10.5L93.84-10.5 93.99-10.45Q94.99-13.1 96.42-15.38 97.84-17.65 99.74-19.05 101.64-20.45 104.14-20.45L104.14-20.45Q106.79-20.45 108.19-18.85 109.59-17.25 109.59-14.85L109.59-14.85Q109.59-13.85 109.37-12.95 109.14-12.05 108.89-11.2L108.89-11.2Q108.64-10.4 108.47-9.55 108.29-8.7 108.29-7.85L108.29-7.85Q108.29-5 110.99-4L110.99-4Q111.69-3.7 111.69-3.1L111.69-3.1Q111.69-2.65 111.39-1.8 111.09-0.95 110.29-0.23 109.49 0.5 107.94 0.5L107.94 0.5Q105.94 0.5 104.84-0.93 103.74-2.35 103.74-4.55L103.74-4.55Q103.74-5.8 104.02-7.08 104.29-8.35 104.59-9.45L104.59-9.45Q104.79-10.3 104.97-11.13 105.14-11.95 105.14-12.6L105.14-12.6Q105.14-14.9 102.74-14.9L102.74-14.9Q100.69-14.9 99.14-13.38 97.59-11.85 96.49-9.55 95.39-7.25 94.69-4.9L94.69-4.9 94.69-3.7Q94.69-1.85 93.67-0.65 92.64 0.55 90.89 0.55ZM122.74 0.65L122.74 0.65Q118.94 0.65 116.81-1.53 114.69-3.7 114.69-7.6L114.69-7.6Q114.69-11.15 116.24-14.05 117.79-16.95 120.41-18.68 123.04-20.4 126.19-20.4L126.19-20.4Q129.19-20.4 130.99-18.93 132.79-17.45 132.79-15L132.79-15Q132.79-13.05 131.59-11.4 130.39-9.75 128.39-8.78 126.39-7.8 123.94-7.8L123.94-7.8Q120.94-7.8 119.04-9.15L119.04-9.15Q119.09-6.85 120.61-5.45 122.14-4.05 124.54-4.05L124.54-4.05Q125.99-4.05 127.51-4.58 129.04-5.1 130.14-6L130.14-6Q130.84-6.6 131.44-6.6L131.44-6.6Q131.94-6.6 132.26-6.28 132.59-5.95 132.59-5.45L132.59-5.45Q132.59-4.35 130.69-2.55L130.69-2.55Q127.34 0.65 122.74 0.65ZM123.49-11.1L123.49-11.1Q125.29-11.1 126.49-11.85 127.69-12.6 127.69-13.75L127.69-13.75Q127.69-14.7 126.89-15.23 126.09-15.75 124.69-15.75L124.69-15.75Q122.84-15.75 121.46-14.78 120.09-13.8 119.49-12.05L119.49-12.05Q120.19-11.6 121.29-11.35 122.39-11.1 123.49-11.1ZM144.29 0.65L144.29 0.65Q140.49 0.65 138.36-1.53 136.24-3.7 136.24-7.6L136.24-7.6Q136.24-11.15 137.79-14.05 139.34-16.95 141.96-18.68 144.59-20.4 147.74-20.4L147.74-20.4Q150.74-20.4 152.54-18.93 154.34-17.45 154.34-15L154.34-15Q154.34-13.05 153.14-11.4 151.94-9.75 149.94-8.78 147.94-7.8 145.49-7.8L145.49-7.8Q142.49-7.8 140.59-9.15L140.59-9.15Q140.64-6.85 142.16-5.45 143.69-4.05 146.09-4.05L146.09-4.05Q147.54-4.05 149.06-4.58 150.59-5.1 151.69-6L151.69-6Q152.39-6.6 152.99-6.6L152.99-6.6Q153.49-6.6 153.81-6.28 154.14-5.95 154.14-5.45L154.14-5.45Q154.14-4.35 152.24-2.55L152.24-2.55Q148.89 0.65 144.29 0.65ZM145.04-11.1L145.04-11.1Q146.84-11.1 148.04-11.85 149.24-12.6 149.24-13.75L149.24-13.75Q149.24-14.7 148.44-15.23 147.64-15.75 146.24-15.75L146.24-15.75Q144.39-15.75 143.01-14.78 141.64-13.8 141.04-12.05L141.04-12.05Q141.74-11.6 142.84-11.35 143.94-11.1 145.04-11.1ZM161.18 0.55L161.18 0.55Q160.38 0.55 159.91 0.28 159.43 0 159.58-0.65L159.58-0.65Q160.13-2.8 160.51-5.03 160.88-7.25 160.88-9.3L160.88-9.3Q160.88-11.95 160.56-13.18 160.23-14.4 159.68-14.88 159.13-15.35 158.33-15.6L158.33-15.6Q157.98-15.75 157.71-16 157.43-16.25 157.43-16.7L157.43-16.7Q157.43-17.4 157.98-18.25 158.53-19.1 159.53-19.73 160.53-20.35 161.83-20.35L161.83-20.35Q163.53-20.35 164.21-19.18 164.88-18 164.88-16.1L164.88-16.1Q165.78-18.1 167.11-19.28 168.43-20.45 170.43-20.45L170.43-20.45Q171.78-20.45 172.68-19.85 173.58-19.25 173.58-17.9L173.58-17.9Q173.58-16.55 172.71-15.38 171.83-14.2 170.93-14.2L170.93-14.2Q170.78-14.2 170.58-14.25 170.38-14.3 170.23-14.5L170.23-14.5Q169.58-15.3 168.63-15.3L168.63-15.3Q167.18-15.3 166.08-13.4 164.98-11.5 164.88-8.15L164.88-8.15Q164.93-6.9 164.96-5.6 164.98-4.3 164.98-3.7L164.98-3.7Q164.98-1.85 163.96-0.65 162.93 0.55 161.18 0.55ZM179.58-19.85L179.58-19.85Q178.53-19.85 178.38-21.8L178.38-21.8Q178.23-23 178.16-24.75 178.08-26.5 178.08-28.1L178.08-28.1Q178.08-30.3 178.48-31.38 178.88-32.45 180.78-32.45L180.78-32.45Q182.78-32.45 182.78-30.3L182.78-30.3Q182.78-29.3 182.53-27.75 182.28-26.2 181.96-24.58 181.63-22.95 181.33-21.7L181.33-21.7Q181.13-20.8 180.73-20.33 180.33-19.85 179.58-19.85ZM188.98 0.65L188.98 0.65Q187.13 0.65 185.53 0.1 183.93-0.45 182.93-1.45 181.93-2.45 181.93-3.85L181.93-3.85Q181.93-4.6 182.3-5.28 182.68-5.95 183.53-5.95L183.53-5.95Q183.98-5.95 184.48-5.7L184.48-5.7Q185.38-5.2 186.78-4.78 188.18-4.35 189.73-4.35L189.73-4.35Q191.48-4.35 192.83-4.85 194.18-5.35 194.18-6.25L194.18-6.25Q194.18-6.95 193.15-7.25 192.13-7.55 189.73-7.9L189.73-7.9Q188.08-8.2 186.53-8.6 184.98-9 183.98-9.98 182.98-10.95 182.98-12.85L182.98-12.85Q182.98-14.7 184-16.43 185.03-18.15 187.08-19.3 189.13-20.45 192.08-20.45L192.08-20.45Q193.63-20.45 195.08-20.1 196.53-19.75 197.48-19.05 198.43-18.35 198.43-17.3L198.43-17.3Q198.43-16.4 197.8-15.65 197.18-14.9 196.35-14.43 195.53-13.95 194.98-13.95L194.98-13.95Q194.58-13.95 194.03-14.5L194.03-14.5Q193.18-15.2 192.15-15.48 191.13-15.75 190.13-15.75L190.13-15.75Q188.63-15.75 187.7-15.3 186.78-14.85 186.78-14.15L186.78-14.15Q186.78-13.5 187.55-13.1 188.33-12.7 189.48-12.53 190.63-12.35 191.68-12.2L191.68-12.2Q194.58-11.8 196.28-10.83 197.98-9.85 197.98-7.4L197.98-7.4Q197.98-5.5 196.9-3.63 195.83-1.75 193.8-0.55 191.78 0.65 188.98 0.65ZM222.97 0.65L222.97 0.65Q219.97 0.65 218.15-1.23 216.32-3.1 216.32-6.6L216.32-6.6Q216.32-9.1 217.3-11.58 218.27-14.05 220.12-16.05 221.97-18.05 224.57-19.25 227.17-20.45 230.42-20.45L230.42-20.45Q233.42-20.45 235.55-19.43 237.67-18.4 237.67-16.65L237.67-16.65Q237.67-16.2 237.57-15.48 237.47-14.75 237.32-14.3L237.32-14.3Q237.17-13.9 236.9-13.58 236.62-13.25 236.17-13.25L236.17-13.25Q235.97-13.25 235.42-13.4L235.42-13.4Q235.22-12.35 235.12-11.35 235.02-10.35 235.02-9.35L235.02-9.35Q235.02-7.45 235.6-5.98 236.17-4.5 237.87-4.15L237.87-4.15Q238.32-4.05 238.6-3.85 238.87-3.65 238.87-3L238.87-3Q238.87-2.45 238.6-1.6 238.32-0.75 237.55-0.08 236.77 0.6 235.32 0.6L235.32 0.6Q233.37 0.6 232.32-0.83 231.27-2.25 231.27-4.9L231.27-4.9Q229.92-2.45 227.85-0.9 225.77 0.65 222.97 0.65ZM224.57-4.55L224.57-4.55Q226.57-4.55 228.1-5.8 229.62-7.05 230.47-8.95L230.47-8.95Q231.02-10.15 231.32-11.58 231.62-13 231.72-14.4L231.72-14.4Q230.87-14.8 229.77-15.05 228.67-15.3 227.47-15.3L227.47-15.3Q224.42-15.3 222.45-13.5 220.47-11.7 220.47-9L220.47-9Q220.47-7 221.57-5.78 222.67-4.55 224.57-4.55ZM249.22 0.65L249.22 0.65Q245.72 0.65 243.75-1.48 241.77-3.6 241.77-7.4L241.77-7.4Q241.77-11.15 243.37-14.1 244.97-17.05 247.77-18.75 250.57-20.45 254.12-20.45L254.12-20.45Q256.52-20.45 257.92-19.65 259.32-18.85 259.32-17.45L259.32-17.45Q259.32-16.2 258.12-15L258.12-15Q257.67-14.55 256.94-14.18 256.22-13.8 255.82-13.8L255.82-13.8Q255.37-13.8 255.07-14.15L255.07-14.15Q254.57-14.7 253.77-15.2 252.97-15.7 251.52-15.7L251.52-15.7Q249.07-15.7 247.52-14.03 245.97-12.35 245.97-9.65L245.97-9.65Q245.97-7.2 247.37-5.7 248.77-4.2 251.07-4.2L251.07-4.2Q252.27-4.2 253.69-4.63 255.12-5.05 256.22-5.85L256.22-5.85Q256.77-6.35 257.37-6.35L257.37-6.35Q258.37-6.35 258.37-5.1L258.37-5.1Q258.37-3.45 256.72-1.95L256.72-1.95Q255.47-0.8 253.39-0.08 251.32 0.65 249.22 0.65ZM268.27 0.65L268.27 0.65Q265.27 0.65 263.44-1.23 261.62-3.1 261.62-6.6L261.62-6.6Q261.62-9.1 262.59-11.58 263.57-14.05 265.42-16.05 267.27-18.05 269.87-19.25 272.47-20.45 275.72-20.45L275.72-20.45Q278.72-20.45 280.84-19.43 282.97-18.4 282.97-16.65L282.97-16.65Q282.97-16.2 282.87-15.48 282.77-14.75 282.62-14.3L282.62-14.3Q282.47-13.9 282.19-13.58 281.92-13.25 281.47-13.25L281.47-13.25Q281.27-13.25 280.72-13.4L280.72-13.4Q280.52-12.35 280.42-11.35 280.32-10.35 280.32-9.35L280.32-9.35Q280.32-7.45 280.89-5.98 281.47-4.5 283.17-4.15L283.17-4.15Q283.62-4.05 283.89-3.85 284.17-3.65 284.17-3L284.17-3Q284.17-2.45 283.89-1.6 283.62-0.75 282.84-0.08 282.07 0.6 280.62 0.6L280.62 0.6Q278.67 0.6 277.62-0.83 276.57-2.25 276.57-4.9L276.57-4.9Q275.22-2.45 273.14-0.9 271.07 0.65 268.27 0.65ZM269.87-4.55L269.87-4.55Q271.87-4.55 273.39-5.8 274.92-7.05 275.77-8.95L275.77-8.95Q276.32-10.15 276.62-11.58 276.92-13 277.02-14.4L277.02-14.4Q276.17-14.8 275.07-15.05 273.97-15.3 272.77-15.3L272.77-15.3Q269.72-15.3 267.74-13.5 265.77-11.7 265.77-9L265.77-9Q265.77-7 266.87-5.78 267.97-4.55 269.87-4.55ZM293.51 0.65L293.51 0.65Q290.51 0.65 288.79-1.35 287.06-3.35 287.06-6.8L287.06-6.8Q287.06-9.35 287.89-11.8 288.72-14.25 290.22-16.2 291.72-18.15 293.72-19.3 295.72-20.45 298.06-20.45L298.06-20.45Q299.56-20.45 300.74-20 301.92-19.55 302.81-18.85L302.81-18.85Q302.76-22.25 302.47-24.95 302.17-27.65 301.01-29.95L301.01-29.95Q300.81-30.35 300.69-30.68 300.56-31 300.56-31.3L300.56-31.3Q300.56-32 301.14-32.6 301.72-33.2 302.56-33.6 303.42-34 304.17-34L304.17-34Q305.51-34 306.19-32.83 306.87-31.65 307.06-29.63 307.26-27.6 307.26-25L307.26-25Q307.26-21.2 306.92-18.15 306.56-15.1 306.26-12.8L306.26-12.8Q306.06-11.3 305.92-10.2 305.76-9.1 305.76-8.4L305.76-8.4Q305.76-4.85 308.81-4.2L308.81-4.2Q309.62-4.05 309.62-3.15L309.62-3.15Q309.62-2.6 309.29-1.75 308.97-0.9 308.12-0.23 307.26 0.45 305.67 0.45L305.67 0.45Q303.51 0.45 302.76-1 302.01-2.45 302.01-5.4L302.01-5.4Q300.62-2.85 298.47-1.1 296.31 0.65 293.51 0.65ZM295.06-4.7L295.06-4.7Q296.47-4.7 297.87-5.6 299.26-6.5 300.37-8.05L300.37-8.05Q301.01-9 301.54-10.23 302.06-11.45 302.51-12.7L302.51-12.7Q299.97-15 296.87-15L296.87-15Q294.17-15 292.56-13.38 290.97-11.75 290.97-9.35L290.97-9.35Q290.97-7.3 292.17-6 293.37-4.7 295.06-4.7ZM320.71 0.65L320.71 0.65Q316.91 0.65 314.79-1.53 312.66-3.7 312.66-7.6L312.66-7.6Q312.66-11.15 314.21-14.05 315.76-16.95 318.39-18.68 321.01-20.4 324.16-20.4L324.16-20.4Q327.16-20.4 328.96-18.93 330.76-17.45 330.76-15L330.76-15Q330.76-13.05 329.56-11.4 328.36-9.75 326.36-8.78 324.36-7.8 321.91-7.8L321.91-7.8Q318.91-7.8 317.01-9.15L317.01-9.15Q317.06-6.85 318.59-5.45 320.11-4.05 322.51-4.05L322.51-4.05Q323.96-4.05 325.49-4.58 327.01-5.1 328.11-6L328.11-6Q328.81-6.6 329.41-6.6L329.41-6.6Q329.91-6.6 330.24-6.28 330.56-5.95 330.56-5.45L330.56-5.45Q330.56-4.35 328.66-2.55L328.66-2.55Q325.31 0.65 320.71 0.65ZM321.46-11.1L321.46-11.1Q323.26-11.1 324.46-11.85 325.66-12.6 325.66-13.75L325.66-13.75Q325.66-14.7 324.86-15.23 324.06-15.75 322.66-15.75L322.66-15.75Q320.81-15.75 319.44-14.78 318.06-13.8 317.46-12.05L317.46-12.05Q318.16-11.6 319.26-11.35 320.36-11.1 321.46-11.1ZM337.41 0.55L337.41 0.55Q335.61 0.55 335.81-0.65L335.81-0.65Q336.36-2.8 336.74-5.03 337.11-7.25 337.11-9.3L337.11-9.3Q337.11-11.95 336.79-13.18 336.46-14.4 335.91-14.88 335.36-15.35 334.56-15.6L334.56-15.6Q334.21-15.75 333.94-16 333.66-16.25 333.66-16.7L333.66-16.7Q333.66-17.4 334.21-18.25 334.76-19.1 335.79-19.73 336.81-20.35 338.11-20.35L338.11-20.35Q339.81-20.35 340.46-19.18 341.11-18 341.11-16.1L341.11-16.1Q341.11-14.85 340.86-13.3 340.61-11.75 340.36-10.5L340.36-10.5 340.46-10.45Q341.26-13.1 342.44-15.35 343.61-17.6 345.29-19 346.96-20.4 349.16-20.4L349.16-20.4Q351.41-20.4 352.71-18.88 354.01-17.35 354.01-14.4L354.01-14.4 354.01-13.3Q355.46-16.35 357.54-18.4 359.61-20.45 362.56-20.45L362.56-20.45Q364.96-20.45 366.31-18.85 367.66-17.25 367.66-14.85L367.66-14.85Q367.66-13.9 367.46-13.03 367.26-12.15 367.01-11.3L367.01-11.3Q366.81-10.5 366.61-9.65 366.41-8.8 366.41-7.95L366.41-7.95Q366.41-4.95 368.96-4.05L368.96-4.05Q369.31-3.9 369.51-3.73 369.71-3.55 369.71-3.1L369.71-3.1Q369.71-2.65 369.44-1.8 369.16-0.95 368.36-0.23 367.56 0.5 366.06 0.5L366.06 0.5Q364.11 0.5 363.06-0.93 362.01-2.35 362.01-4.55L362.01-4.55Q362.01-5.65 362.21-6.85 362.41-8.05 362.71-9.15L362.71-9.15Q362.96-10.15 363.14-11.05 363.31-11.95 363.31-12.6L363.31-12.6Q363.31-13.8 362.74-14.35 362.16-14.9 361.21-14.9L361.21-14.9Q359.61-14.9 358.34-13.9 357.06-12.9 356.09-11.3 355.11-9.7 354.41-7.8L354.41-7.8Q354.46-7.35 354.49-6.63 354.51-5.9 354.51-5.35L354.51-5.35Q354.51-4.4 354.39-3.35 354.26-2.3 353.91-1.6L353.91-1.6Q353.51-0.65 352.74-0.05 351.96 0.55 350.66 0.55L350.66 0.55Q350.11 0.55 349.61 0.33 349.11 0.1 349.11-0.4L349.11-0.4Q349.11-0.6 349.41-2.18 349.71-3.75 350.01-6.05 350.31-8.35 350.31-10.55L350.31-10.55Q350.31-12.95 349.81-13.88 349.31-14.8 348.31-14.8L348.31-14.8Q347.06-14.8 345.94-13.75 344.81-12.7 343.89-11.05 342.96-9.4 342.29-7.6 341.61-5.8 341.21-4.25L341.21-4.25 341.21-3.7Q341.21-1.85 340.19-0.65 339.16 0.55 337.41 0.55ZM374.31 13.8L374.31 13.8Q372.26 13.8 370.78 12.7 369.31 11.6 369.31 9.75L369.31 9.75Q369.31 8.3 370.18 7.28 371.06 6.25 372.36 6.25L372.36 6.25Q372.96 6.25 373.21 6.45 373.46 6.65 373.61 6.9L373.61 6.9Q374.01 7.55 374.53 8.03 375.06 8.5 375.96 8.5L375.96 8.5Q377.16 8.5 378.28 7.65 379.41 6.8 380.36 5.7L380.36 5.7Q381.21 4.75 382.41 2.98 383.61 1.2 384.81-1.05L384.81-1.05Q383.71-0.1 382.76 0.33 381.81 0.75 380.96 0.75L380.96 0.75Q379.91 0.75 378.91-0.03 377.91-0.8 377.66-2.95L377.66-2.95Q377.51-4.6 377.08-6.6 376.66-8.6 376.03-10.48 375.41-12.35 374.51-13.65L374.51-13.65Q374.16-14.25 373.71-14.55 373.26-14.85 372.41-14.95L372.41-14.95Q371.81-15 371.63-15.3 371.46-15.6 371.46-16.25L371.46-16.25Q371.46-18.05 372.46-19.15 373.46-20.25 375.16-20.25L375.16-20.25Q377.21-20.25 378.11-18.68 379.01-17.1 379.66-14.85L379.66-14.85Q379.91-13.95 380.18-12.48 380.46-11 380.68-9.3 380.91-7.6 381.01-6.05L381.01-6.05Q381.06-4.95 382.26-4.95L382.26-4.95Q383.86-4.95 385.31-5.95 386.76-6.95 387.68-8.55 388.61-10.15 388.61-11.9L388.61-11.9Q388.61-12.9 388.36-13.7 388.11-14.5 387.51-15.1L387.51-15.1Q387.01-15.7 386.71-16.07 386.41-16.45 386.41-16.95L386.41-16.95Q386.41-17.8 387.21-18.55 388.01-19.3 389.13-19.8 390.26-20.3 391.11-20.3L391.11-20.3Q392.61-20.3 393.11-18.88 393.61-17.45 393.36-15.75L393.36-15.75Q393.06-13.4 392.16-10.2 391.26-7 389.83-3.5 388.41 0 386.58 3.28 384.76 6.55 382.71 9L382.71 9Q380.96 11.15 378.81 12.48 376.66 13.8 374.31 13.8Z" opacity="1" transform="matrix(1,0,0,1,0,0)" fill="#0c076b" class="wordmark-text-0" data-fill-palette-color="primary" id="text-0"></path></svg></g></svg></g><g transform="matrix(1,0,0,1,69.21599999999998,59.71654583557797)"><svg viewBox="0 0 257.088 16.4161094640821" height="16.4161094640821" width="257.088"><g transform="matrix(1,0,0,1,0,0)"><svg width="257.088" viewBox="4 -35.7 570 36.400000000000006" height="16.4161094640821" data-palette-color="#000000"><path d="M34.1-4.3L34.4-4.3 34.1-1.25Q32.7-0.65 30.7-0.2 28.7 0.25 26.65 0.48 24.6 0.7 23 0.7L23 0.7Q18.95 0.7 15.5-0.68 12.05-2.05 9.47-4.5 6.9-6.95 5.45-10.28 4-13.6 4-17.5L4-17.5Q4-21.4 5.45-24.73 6.9-28.05 9.47-30.5 12.05-32.95 15.5-34.33 18.95-35.7 23-35.7L23-35.7Q24.65-35.7 26.7-35.45 28.75-35.2 30.7-34.77 32.65-34.35 34-33.8L34-33.8 33.75-31 33.45-31Q31.6-32.7 28.8-33.6 26-34.5 23-34.5L23-34.5Q18.5-34.5 15.08-32.38 11.65-30.25 9.73-26.43 7.8-22.6 7.8-17.5L7.8-17.5Q7.8-12.35 9.73-8.55 11.65-4.75 15.05-2.63 18.45-0.5 23-0.5L23-0.5Q26.4-0.5 29.33-1.6 32.25-2.7 34.1-4.3L34.1-4.3ZM44.4 0L44.4-35 51.1-35Q56.4-35 59.32-32.77 62.25-30.55 62.25-26.55L62.25-26.55Q62.25-23.45 60.42-21.4 58.6-19.35 55.15-18.65L55.15-18.65 55.15-18.35Q58.45-17.7 60.55-15.25 62.65-12.8 63.7-9.2L63.7-9.2Q64.65-5.9 65.57-4.08 66.5-2.25 67.62-1.45 68.75-0.65 70.3-0.3L70.3-0.3 70.3 0 68.25 0Q66.05 0 64.62-0.8 63.2-1.6 62.2-3.5 61.2-5.4 60.3-8.75L60.3-8.75Q58.85-13.9 56.45-16.05 54.05-18.2 50.6-18.2L50.6-18.2 50.3-18.2 50.3-19.1 50.6-19.1Q58.65-19.1 58.65-26.5L58.65-26.5Q58.65-33.8 51.1-33.8L51.1-33.8 47.8-33.8 47.8 0 44.4 0ZM91.9 0L76.5 0 76.5-35 91.75-35 91.75-32.55 83-33.7Q80.7-34 79.9-34L79.9-34 79.9-18.75Q80.55-18.75 83-18.9L83-18.9 91.2-19.4 91.2-17.1 83-17.6Q80.55-17.75 79.9-17.75L79.9-17.75 79.9-1Q80.8-1 83.05-1.3L83.05-1.3 91.9-2.45 91.9 0ZM100.84 0L97.19 0 110.64-35 113.74-35 127.19 0 123.54 0 117.34-16.4 105.99-16.4 100.84 0ZM111.29-32.4L110.99-32.4 106.34-17.6 116.89-17.6 111.29-32.4ZM143.69 0L140.29 0 140.29-34Q139.54-34 137.19-33.7L137.19-33.7 127.39-32.45 127.39-35 156.59-35 156.59-32.45 146.79-33.7Q144.44-34 143.69-34L143.69-34 143.69 0ZM168.09 0L164.69 0 164.69-35 168.09-35 168.09 0ZM183.74 0L180.34 0 181.59-35.7 182.19-35.7 207.34-5.3 207.64-5.3 206.54-35 209.94-35 208.69 0.7 208.09 0.7 182.94-29.7 182.64-29.7 183.74 0ZM248.88-16.6L239.63-16.6 239.63-17.8 252.28-17.8 252.28-4.2Q249.98-1.9 246.66-0.6 243.33 0.7 239.23 0.7L239.23 0.7Q235.03 0.7 231.48-0.68 227.93-2.05 225.28-4.53 222.63-7 221.16-10.3 219.68-13.6 219.68-17.5L219.68-17.5Q219.68-21.4 221.16-24.7 222.63-28 225.28-30.48 227.93-32.95 231.48-34.33 235.03-35.7 239.23-35.7L239.23-35.7Q241.03-35.7 243.16-35.45 245.28-35.2 247.23-34.77 249.18-34.35 250.53-33.75L250.53-33.75 250.28-30.95 249.98-30.95Q247.98-32.7 245.18-33.6 242.38-34.5 239.23-34.5L239.23-34.5Q234.53-34.5 230.98-32.38 227.43-30.25 225.46-26.43 223.48-22.6 223.48-17.5L223.48-17.5Q223.48-12.4 225.46-8.58 227.43-4.75 230.98-2.63 234.53-0.5 239.23-0.5L239.23-0.5Q242.13-0.5 244.61-1.3 247.08-2.1 248.88-3.6L248.88-3.6 248.88-16.6ZM288.68 0L285.28 0 285.28-34Q284.53-34 282.18-33.7L282.18-33.7 272.38-32.45 272.38-35 301.58-35 301.58-32.45 291.78-33.7Q289.43-34 288.68-34L288.68-34 288.68 0ZM313.07 0L309.68 0 309.68-35 313.07-35 313.07-18.8 334.07-18.8 334.07-35 337.48-35 337.48 0 334.07 0 334.07-17.6 313.07-17.6 313.07 0ZM365.87 0L350.47 0 350.47-35 365.72-35 365.72-32.55 356.97-33.7Q354.67-34 353.87-34L353.87-34 353.87-18.75Q354.52-18.75 356.97-18.9L356.97-18.9 365.17-19.4 365.17-17.1 356.97-17.6Q354.52-17.75 353.87-17.75L353.87-17.75 353.87-1Q354.77-1 357.02-1.3L357.02-1.3 365.87-2.45 365.87 0ZM393.27 0L389.87 0 389.87-35 404.57-35 404.57-32.55 396.27-33.7Q394.02-34 393.27-34L393.27-34 393.27-18.35Q394.07-18.35 396.37-18.5L396.37-18.5 404.02-19 404.02-16.7 396.37-17.2Q394.07-17.35 393.27-17.35L393.27-17.35 393.27 0ZM413.81-14L413.81-35 417.21-35 417.21-13.9Q417.21-7.85 420.19-4.48 423.17-1.1 428.56-1.1L428.56-1.1Q431.96-1.1 434.49-2.43 437.01-3.75 438.39-6.1 439.76-8.45 439.67-11.5L439.67-11.5 438.81-35 442.21-35 441.37-11.5Q441.17-5.5 437.79-2.4 434.42 0.7 428.17 0.7L428.17 0.7Q421.42 0.7 417.62-3.23 413.81-7.15 413.81-14L413.81-14ZM465.61 0L462.21 0 462.21-34Q461.46-34 459.11-33.7L459.11-33.7 449.31-32.45 449.31-35 478.51-35 478.51-32.45 468.71-33.7Q466.36-34 465.61-34L465.61-34 465.61 0ZM486.11-14L486.11-35 489.51-35 489.51-13.9Q489.51-7.85 492.49-4.48 495.46-1.1 500.86-1.1L500.86-1.1Q504.26-1.1 506.79-2.43 509.31-3.75 510.69-6.1 512.06-8.45 511.96-11.5L511.96-11.5 511.11-35 514.51-35 513.66-11.5Q513.46-5.5 510.09-2.4 506.71 0.7 500.46 0.7L500.46 0.7Q493.71 0.7 489.91-3.23 486.11-7.15 486.11-14L486.11-14ZM526.51 0L526.51-35 533.21-35Q538.51-35 541.43-32.77 544.36-30.55 544.36-26.55L544.36-26.55Q544.36-23.45 542.53-21.4 540.71-19.35 537.26-18.65L537.26-18.65 537.26-18.35Q540.56-17.7 542.66-15.25 544.76-12.8 545.81-9.2L545.81-9.2Q546.76-5.9 547.68-4.08 548.61-2.25 549.73-1.45 550.86-0.65 552.41-0.3L552.41-0.3 552.41 0 550.36 0Q548.16 0 546.73-0.8 545.31-1.6 544.31-3.5 543.31-5.4 542.41-8.75L542.41-8.75Q540.96-13.9 538.56-16.05 536.16-18.2 532.71-18.2L532.71-18.2 532.41-18.2 532.41-19.1 532.71-19.1Q540.76-19.1 540.76-26.5L540.76-26.5Q540.76-33.8 533.21-33.8L533.21-33.8 529.91-33.8 529.91 0 526.51 0ZM574 0L558.6 0 558.6-35 573.85-35 573.85-32.55 565.1-33.7Q562.8-34 562-34L562-34 562-18.75Q562.65-18.75 565.1-18.9L565.1-18.9 573.3-19.4 573.3-17.1 565.1-17.6Q562.65-17.75 562-17.75L562-17.75 562-1Q562.9-1 565.15-1.3L565.15-1.3 574-2.45 574 0Z" opacity="1" transform="matrix(1,0,0,1,0,0)" fill="#000000" class="slogan-text-1" data-fill-palette-color="secondary" id="text-1"></path></svg></g></svg></g></svg></g></svg></g><g transform="matrix(1,0,0,1,145.15233518793488,0)"><svg viewBox="0 0 105.21532962413022 105.21532962413022" height="105.21532962413022" width="105.21532962413022"><g><svg></svg></g><g id="icon-0"><svg viewBox="0 0 105.21532962413022 105.21532962413022" height="105.21532962413022" width="105.21532962413022"><g><path transform="scale(1.05215,1.05215)" d="M30 100c-16.569 0-30-13.431-30-30v-40c0-16.569 13.431-30 30-30h40c16.569 0 30 13.431 30 30v40c0 16.569-13.431 30-30 30z" fill="#3f48ff" fill-rule="nonzero" stroke="none" stroke-width="1" stroke-linecap="butt" stroke-linejoin="miter" stroke-miterlimit="10" stroke-dasharray="" stroke-dashoffset="0" font-family="none" font-weight="none" font-size="none" text-anchor="none" style="mix-blend-mode: normal" data-fill-palette-color="accent"></path></g><g transform="matrix(1,0,0,1,21.04306592482604,27.22129251221193)"><svg viewBox="0 0 63.12919777447814 50.77274459970636" height="50.77274459970636" width="63.12919777447814"><g><svg xmlns="http://www.w3.org/2000/svg" xmlns:xlink="http://www.w3.org/1999/xlink" version="1.1" x="0" y="0" viewBox="0 9.786 100.00034525290006 80.42699999999999" enable-background="new 0 0 100 100" xml:space="preserve" width="63.12919777447814" height="50.77274459970636" class="icon-cg-0" data-fill-palette-color="quaternary" id="cg-0"><path d="M49.942 52.994c13.552-0.488 27.103-0.977 40.653-1.465-2.527-4.177-3.159-7.831-7.989-8.461-7.229-0.94-14.458-1.883-21.688-2.826-14.023-1.827-28.05-3.654-42.075-5.48C20.101 36.792 39.724 53.361 49.942 52.994z" fill="#ffffff" data-fill-palette-color="quaternary"></path><path d="M0 9.786c4.391 7.257 26.615 23.072 32.953 23.886 17.33 2.231 34.657 4.46 51.986 6.688-3.393-5.607-4.18-9.35-10.312-10.959-8.904-2.341-17.812-4.683-26.717-7.023C31.94 18.182 15.97 13.984 0 9.786z" fill="#ffffff" data-fill-palette-color="quaternary"></path><path d="M63.108 66.207c10.413-2.219 20.826-4.439 31.241-6.66-2.028-3.346-2.034-5.359-5.827-5.189-6.158 0.273-12.314 0.549-18.471 0.822-11.343 0.506-22.686 1.014-34.028 1.518C37.298 58.064 54.94 67.947 63.108 66.207z" fill="#ffffff" data-fill-palette-color="quaternary"></path><path d="M87.682 90.213c5.725-3.719 7.262-7.721 10.519-13.807 3.651-6.824 1.257-7.844-2.821-14.596-0.417-0.688-5.842 0.232-6.453 0.904-0.745 0.818-0.248 5.455-0.294 6.496C88.315 76.211 87.998 83.213 87.682 90.213z" fill="#ffffff" data-fill-palette-color="quaternary"></path><path d="M86.35 63.447c-3.795 0.809-8.604 0.191-9.572 4.229-1.373 5.736-2.746 11.475-4.12 17.211C81.904 82.678 86.028 71.582 86.35 63.447z" fill="#ffffff" data-fill-palette-color="quaternary"></path><path d="M74.666 66.121c-9.148 1.953-8.956 4.611-12.879 13.18C68.007 78.711 73.811 71.941 74.666 66.121z" fill="#ffffff" data-fill-palette-color="quaternary"></path></svg></g></svg></g></svg></g></svg></g><g></g></svg></g><defs></defs></svg><rect width="395.52" height="192.7531438902939" fill="none" stroke="none" visibility="hidden"></rect></g></svg></g></svg>